<svg width="64" height="64" viewBox="0 0 64 64" fill="none" xmlns="http://www.w3.org/2000/svg">
<path d="M56 8H37.3333C35.3589 8.00669 33.4576 8.74817 32 10.08C30.5424 8.74817 28.6411 8.00669 26.6667 8H8.00001C7.29277 8 6.61449 8.28095 6.11439 8.78105C5.61429 9.28115 5.33334 9.95942 5.33334 10.6667V50.6667C5.33334 51.3739 5.61429 52.0522 6.11439 52.5523C6.61449 53.0524 7.29277 53.3333 8.00001 53.3333H23.3547C24.7573 53.3333 26.1333 53.904 27.1253 54.896L30.1147 57.8853C30.1387 57.9093 30.1707 57.9173 30.1947 57.9413C30.424 58.152 30.68 58.3387 30.9787 58.464H30.984C31.6346 58.7333 32.3654 58.7333 33.016 58.464H33.0213C33.32 58.3387 33.576 58.152 33.8053 57.9413C33.8293 57.9173 33.8613 57.9093 33.8853 57.8853L36.8747 54.896C37.8771 53.8994 39.2318 53.338 40.6453 53.3333H56C56.7073 53.3333 57.3855 53.0524 57.8856 52.5523C58.3857 52.0522 58.6667 51.3739 58.6667 50.6667V10.6667C58.6667 9.95942 58.3857 9.28115 57.8856 8.78105C57.3855 8.28095 56.7073 8 56 8ZM23.3547 48H10.6667V13.3333H26.6667C28.1387 13.3333 29.3333 14.5307 29.3333 16V49.8373C27.5666 48.646 25.4856 48.0065 23.3547 48ZM53.3333 48H40.6453C38.5147 48 36.4213 48.656 34.6667 49.8373V16C34.6667 14.5307 35.8613 13.3333 37.3333 13.3333H53.3333V48Z" fill="black"/>
</svg>
