<svg width="82" height="103" viewBox="0 0 82 103" fill="none" xmlns="http://www.w3.org/2000/svg">
<path d="M75.0739 58.7925C75.0739 59.6126 74.3867 60.2796 73.5314 60.2796H52.6213C45.1799 60.2796 42.4786 63.638 42.4786 63.638L42.1351 64.0995L41.9746 64.3227C41.9732 64.3227 41.9732 64.3227 41.9732 64.3227C41.2635 65.286 40.22 64.3303 40.2151 64.3227L39.7335 63.7233C39.3762 63.2945 36.6424 60.2796 30.0278 60.2796H8.46682C7.61537 60.2796 6.92815 59.61 6.92815 58.7898V14.3067C6.92815 13.4846 7.61661 12.8213 8.46682 12.8213H25.2046C37.6555 12.8213 38.8343 19.8929 38.9159 21.9465V52.8839C38.9159 55.1324 39.9868 55.5525 40.5913 55.6139H41.4918C42.1075 55.5525 43.0869 55.1862 43.0869 53.4344V21.5496H43.0757C43.1709 18.9775 44.1716 12.8213 51.6608 12.8213H73.5315C74.3868 12.8213 75.0741 13.4853 75.0741 14.3067L75.0739 58.7925ZM80.6143 21.5509H80.5415C79.137 21.5596 78.9188 20.3363 78.8949 19.7709V10.8989C78.8949 9.95335 78.1263 9.18595 77.1819 9.18595H51.8175C45.452 9.18595 43.0792 11.5436 42.49 12.2859L42.328 12.5091L42.3268 12.5116L41.8239 13.2C41.1504 14.1256 40.5636 13.7305 40.2801 13.4283L39.3194 12.2307L38.8455 11.6589C38.0478 10.8205 35.9674 9.18457 31.8453 9.18457H4.82249C3.87566 9.18457 3.10826 9.95211 3.10826 10.8977V19.6578C3.10826 21.1897 2.27557 21.4994 1.76461 21.5496H1.38339C0.967535 21.5741 0 21.8168 0 23.5975V65.3386C0 66.3645 0.830893 67.1945 1.85474 67.1945H26.5169C34.3849 67.1945 37.8135 70.1616 38.8418 71.2978L39.4286 72.0252H39.4299C39.4299 72.0252 41.0037 73.8035 42.6615 72.0252L43.0077 71.6213V71.6263L43.0103 71.6213L43.4492 71.1072C43.4618 71.0922 43.5683 70.9741 43.7201 70.8162C45.0342 69.5397 48.3149 67.1945 54.7306 67.1945H80.1477C81.1723 67.1945 82 66.3643 82 65.3386V23.1931C82.0012 21.6856 80.9066 21.5584 80.6143 21.5509Z" fill="#C57878"/>
<path d="M6.368 96L6.128 94.248L7.592 93.96V81.36L6.152 81.216V79.416H16.424L16.904 83.928H15.368L14.456 81.504H10.016V86.568H13.784V88.608H10.016V93.912H14.672L15.536 91.488H17.048L16.568 96H6.368ZM19.0169 96L18.8249 94.704L20.1449 94.368V86.208L18.8969 86.232L18.6569 84.84L21.6569 84.312L22.3529 85.248C22.7209 84.992 23.1609 84.784 23.6729 84.624C24.1849 84.448 24.7049 84.36 25.2329 84.36C25.9369 84.36 26.5529 84.48 27.0809 84.72C27.6249 84.96 28.0409 85.328 28.3289 85.824C28.6329 86.304 28.7849 86.92 28.7849 87.672V94.416L30.1769 94.704V96H25.2809L25.2329 94.704L26.5529 94.392V88.104C26.5529 87.464 26.4009 86.992 26.0969 86.688C25.7929 86.384 25.3609 86.232 24.8009 86.232C24.3209 86.232 23.8569 86.336 23.4089 86.544C22.9609 86.752 22.6249 86.968 22.4009 87.192V94.392L23.8169 94.704L23.7929 96H19.0169ZM35.8246 102.456C34.9446 102.456 34.1526 102.304 33.4486 102C32.7446 101.696 32.1846 101.264 31.7686 100.704C31.3686 100.144 31.1686 99.488 31.1686 98.736C31.1686 97.952 31.3766 97.296 31.7926 96.768C32.2086 96.256 32.6726 95.856 33.1846 95.568C32.9766 95.392 32.8086 95.184 32.6806 94.944C32.5686 94.704 32.5126 94.416 32.5126 94.08C32.5126 93.712 32.6006 93.376 32.7766 93.072C32.9526 92.752 33.1606 92.472 33.4006 92.232C32.8566 91.88 32.4166 91.408 32.0806 90.816C31.7606 90.224 31.6006 89.536 31.6006 88.752C31.6006 87.84 31.8086 87.056 32.2246 86.4C32.6406 85.744 33.1926 85.24 33.8806 84.888C34.5846 84.536 35.3366 84.36 36.1366 84.36C36.7126 84.36 37.2566 84.448 37.7686 84.624C38.2806 84.784 38.7366 85.032 39.1366 85.368L41.5366 84.168L42.0406 84.24L42.3046 86.256L40.1446 86.52C40.3206 86.824 40.4566 87.168 40.5526 87.552C40.6646 87.92 40.7206 88.312 40.7206 88.728C40.7206 89.624 40.5046 90.392 40.0726 91.032C39.6566 91.672 39.1046 92.16 38.4166 92.496C37.7286 92.832 36.9686 93 36.1366 93C35.9766 93 35.8166 93 35.6566 93C35.5126 92.984 35.3686 92.96 35.2246 92.928L34.7446 93.624L34.8166 94.032L37.2886 94.608C38.0566 94.784 38.7206 95.016 39.2806 95.304C39.8566 95.592 40.3046 95.952 40.6246 96.384C40.9446 96.832 41.1046 97.4 41.1046 98.088C41.1046 99.032 40.8566 99.824 40.3606 100.464C39.8806 101.12 39.2326 101.616 38.4166 101.952C37.6166 102.288 36.7526 102.456 35.8246 102.456ZM36.2086 100.224C36.7046 100.224 37.1846 100.152 37.6486 100.008C38.1126 99.864 38.4886 99.648 38.7766 99.36C39.0806 99.088 39.2326 98.768 39.2326 98.4C39.2326 98.048 39.0966 97.768 38.8246 97.56C38.5526 97.368 38.1926 97.2 37.7446 97.056C37.3126 96.928 36.8326 96.816 36.3046 96.72C35.7926 96.624 35.2966 96.504 34.8166 96.36C34.3526 96.568 33.9766 96.84 33.6886 97.176C33.4006 97.512 33.2566 97.904 33.2566 98.352C33.2566 98.72 33.3846 99.04 33.6406 99.312C33.8966 99.6 34.2406 99.824 34.6726 99.984C35.1206 100.144 35.6326 100.224 36.2086 100.224ZM36.1366 91.176C36.8886 91.176 37.4486 90.936 37.8166 90.456C38.2006 89.96 38.3926 89.36 38.3926 88.656C38.3926 87.984 38.2006 87.408 37.8166 86.928C37.4486 86.432 36.8886 86.184 36.1366 86.184C35.4006 86.184 34.8406 86.432 34.4566 86.928C34.0886 87.408 33.9046 87.984 33.9046 88.656C33.9046 89.36 34.0886 89.96 34.4566 90.456C34.8406 90.936 35.4006 91.176 36.1366 91.176ZM43.1743 96L42.9823 94.704L44.4223 94.368V80.304H43.1263L42.8863 78.888L45.8863 78.432L46.6543 79.224V94.344L48.1663 94.704V96H43.1743ZM49.7904 96L49.5504 94.704L50.9424 94.368V86.232L49.6944 86.28L49.4544 84.84L52.4544 84.312L53.1984 85.104V94.392L54.5904 94.704V96H49.7904ZM51.9984 83.256C51.6144 83.256 51.2944 83.12 51.0384 82.848C50.7984 82.576 50.6784 82.264 50.6784 81.912C50.6784 81.544 50.7984 81.232 51.0384 80.976C51.2944 80.704 51.6144 80.568 51.9984 80.568C52.3664 80.568 52.6784 80.704 52.9344 80.976C53.1904 81.232 53.3184 81.544 53.3184 81.912C53.3184 82.264 53.1904 82.576 52.9344 82.848C52.6784 83.12 52.3664 83.256 51.9984 83.256ZM59.9557 96.072C59.2197 96.072 58.5637 95.944 57.9877 95.688C57.4117 95.432 56.9397 95.112 56.5717 94.728C56.2037 94.328 55.9317 93.944 55.7557 93.576L58.2517 92.616L58.8517 94.008C58.9317 94.04 59.0757 94.088 59.2837 94.152C59.5077 94.216 59.7797 94.248 60.0997 94.248C60.3077 94.248 60.5317 94.2 60.7717 94.104C61.0277 94.008 61.2437 93.864 61.4197 93.672C61.5957 93.464 61.6837 93.192 61.6837 92.856C61.6837 92.504 61.5717 92.216 61.3477 91.992C61.1397 91.768 60.8517 91.584 60.4837 91.44C60.1157 91.28 59.7157 91.112 59.2837 90.936C58.2917 90.584 57.5397 90.136 57.0277 89.592C56.5317 89.048 56.2837 88.4 56.2837 87.648C56.2837 86.992 56.4517 86.416 56.7877 85.92C57.1397 85.424 57.6117 85.04 58.2037 84.768C58.7957 84.48 59.4357 84.336 60.1237 84.336C60.8757 84.336 61.5157 84.464 62.0437 84.72C62.5877 84.96 63.0277 85.264 63.3637 85.632C63.7157 86 63.9717 86.352 64.1317 86.688L61.6357 87.648L61.0597 86.424C61.0117 86.392 60.9077 86.344 60.7477 86.28C60.5877 86.216 60.3637 86.184 60.0757 86.184C59.8357 86.184 59.6037 86.232 59.3797 86.328C59.1557 86.408 58.9637 86.536 58.8037 86.712C58.6597 86.888 58.5877 87.12 58.5877 87.408C58.5877 87.712 58.6997 87.968 58.9237 88.176C59.1637 88.384 59.4997 88.584 59.9317 88.776C60.3637 88.952 60.8597 89.16 61.4197 89.4C62.2197 89.72 62.8437 90.144 63.2917 90.672C63.7557 91.184 63.9877 91.84 63.9877 92.64C63.9877 93.376 63.7877 94.008 63.3877 94.536C63.0037 95.048 62.4997 95.432 61.8757 95.688C61.2677 95.944 60.6277 96.072 59.9557 96.072ZM65.7463 96L65.5303 94.704L66.9223 94.368V80.304H65.6263L65.4103 78.888L68.3863 78.432L69.1543 79.224V85.248C69.5223 84.992 69.9543 84.784 70.4503 84.624C70.9623 84.448 71.4743 84.36 71.9863 84.36C72.6903 84.36 73.3063 84.48 73.8343 84.72C74.3783 84.96 74.8023 85.328 75.1063 85.824C75.4103 86.304 75.5623 86.92 75.5623 87.672V94.392L76.9543 94.704L76.9303 96H72.0583L72.0103 94.704L73.3063 94.392V88.104C73.3063 87.464 73.1543 86.992 72.8503 86.688C72.5623 86.384 72.1383 86.232 71.5783 86.232C71.0983 86.232 70.6343 86.336 70.1863 86.544C69.7383 86.752 69.3943 86.968 69.1543 87.192V94.392L70.5223 94.68L70.4983 96H65.7463Z" fill="black"/>
</svg>
