<svg width="807" height="837" viewBox="0 0 807 837" fill="none" xmlns="http://www.w3.org/2000/svg">
<path d="M479.374 479.703C479.521 479.834 479.661 479.972 479.795 480.116L480.994 481.336L485.624 486.152L503.091 504.526L564.983 570.067H564.267L634.472 491.092L634.956 490.554L635.356 491.154L640.47 498.718L693.586 577.26L692.85 577.136L743.904 537.08L744.198 536.852L744.451 537.121L783.425 580.526L793.948 592.369L796.683 595.469C797.294 596.172 797.588 596.544 797.588 596.544C797.588 596.544 797.231 596.213 796.599 595.552L793.821 592.369L783.089 580.67L743.862 537.576H744.409L693.481 577.901L693.06 578.231L692.744 577.777L639.565 499.359L634.43 491.774H635.293C609.745 520.503 585.712 547.476 565.004 570.749L564.646 571.142L564.288 570.749C538.867 543.591 517.591 520.896 502.67 504.94L485.413 486.338L480.889 481.419C480.405 480.861 480.026 480.447 479.731 480.137C479.437 479.827 479.353 479.724 479.374 479.703Z" fill="#E6E6E6"/>
<path d="M557.723 570.605C557.71 572.041 558.133 573.448 558.938 574.647C559.742 575.846 560.892 576.783 562.24 577.338C563.589 577.893 565.075 578.042 566.509 577.765C567.944 577.487 569.262 576.797 570.296 575.782C571.33 574.766 572.033 573.472 572.315 572.063C572.597 570.654 572.446 569.194 571.881 567.87C571.315 566.545 570.362 565.416 569.141 564.626C567.92 563.836 566.487 563.42 565.025 563.433C563.092 563.443 561.241 564.203 559.874 565.545C558.506 566.888 557.734 568.706 557.723 570.605Z" fill="#E0E0E0"/>
<path d="M686.662 579.224C686.671 580.655 687.111 582.052 687.929 583.238C688.746 584.423 689.903 585.344 691.253 585.883C692.603 586.422 694.086 586.556 695.514 586.267C696.942 585.978 698.25 585.28 699.273 584.261C700.297 583.241 700.989 581.946 701.263 580.54C701.536 579.134 701.379 577.68 700.81 576.361C700.242 575.043 699.288 573.92 698.07 573.134C696.851 572.349 695.422 571.936 693.965 571.948C692.015 571.965 690.151 572.74 688.783 574.103C687.414 575.467 686.651 577.309 686.662 579.224Z" fill="#E0E0E0"/>
<path d="M736.812 539.395C736.824 540.821 737.267 542.212 738.084 543.392C738.902 544.571 740.057 545.486 741.404 546.02C742.751 546.555 744.228 546.685 745.651 546.395C747.073 546.105 748.375 545.407 749.394 544.389C750.412 543.372 751.1 542.081 751.371 540.679C751.642 539.277 751.484 537.828 750.917 536.515C750.35 535.202 749.398 534.083 748.184 533.301C746.969 532.518 745.546 532.107 744.093 532.119C742.147 532.141 740.289 532.919 738.924 534.282C737.56 535.645 736.8 537.483 736.812 539.395Z" fill="#E0E0E0"/>
<path d="M627.527 492.063C627.536 493.495 627.976 494.892 628.794 496.077C629.611 497.263 630.768 498.183 632.118 498.723C633.468 499.262 634.951 499.396 636.379 499.107C637.807 498.818 639.115 498.12 640.138 497.1C641.162 496.08 641.854 494.786 642.128 493.379C642.401 491.973 642.244 490.519 641.675 489.201C641.107 487.882 640.153 486.759 638.935 485.974C637.716 485.188 636.287 484.775 634.83 484.788C632.88 484.804 631.016 485.579 629.647 486.943C628.279 488.307 627.516 490.148 627.527 492.063Z" fill="#E0E0E0"/>
<path d="M791.78 596.751C791.788 598.182 792.229 599.579 793.046 600.765C793.863 601.95 795.02 602.871 796.371 603.41C797.721 603.95 799.204 604.083 800.631 603.794C802.059 603.506 803.368 602.807 804.391 601.788C805.414 600.768 806.106 599.473 806.38 598.067C806.654 596.661 806.496 595.207 805.928 593.888C805.36 592.57 804.406 591.447 803.187 590.661C801.969 589.876 800.54 589.463 799.082 589.475C797.133 589.492 795.269 590.267 793.9 591.631C792.531 592.994 791.769 594.836 791.78 596.751Z" fill="#E0E0E0"/>
<path d="M146.68 49.3985H99.3933V234.116H146.68V49.3985Z" fill="#E6E6E6"/>
<path d="M216.233 89.6821H168.946V234.095H216.233V89.6821Z" fill="#E6E6E6"/>
<path d="M286.858 122.67H239.571V234.095H286.858V122.67Z" fill="#E6E6E6"/>
<path d="M352.244 167.934H304.957V234.116H352.244V167.934Z" fill="#E6E6E6"/>
<path d="M314.384 3.30701C314.384 3.30701 313.943 3.86507 313.08 4.85717L309.144 9.30097L294.182 26.0427L240.223 85.9824L239.929 86.2924L239.592 86.0444L204.385 59.5469H205.1L155.856 120.851L155.267 121.595L154.909 122.049L154.467 121.657L88.1556 64.1354H88.8922C62.8601 97.7016 40.8054 126.369 25.022 146.645L6.65007 170.229L1.7467 176.429L0.462983 178.021C0.319702 178.209 0.165096 178.388 0 178.558C0.119543 178.356 0.253149 178.163 0.399852 177.979L1.62042 176.326L6.39754 169.981L24.5169 146.232L88.0714 63.4327L88.4081 62.9986L88.808 63.35L155.204 120.727H154.404L154.993 119.983L204.3 58.7202L204.616 58.3275L205.016 58.6375L240.16 85.1143H239.529L293.761 25.65C300.306 18.5193 305.441 12.918 308.955 9.11495L312.974 4.77449C313.9 3.74105 314.384 3.30701 314.384 3.30701Z" fill="#E6E6E6"/>
<path d="M306.577 46.1535C306.56 45.8399 306.596 45.5257 306.682 45.2234L307.208 42.5778C307.755 40.1182 308.492 36.8525 309.313 32.8635C311.186 24.5959 313.837 13.3107 316.889 0.661402L317.562 1.28147L315.184 2.00487C301.989 5.99396 290.036 9.52833 281.366 12.0499L271.075 14.9642L268.255 15.7083C267.932 15.8268 267.59 15.8897 267.245 15.8943C267.547 15.7333 267.864 15.6017 268.192 15.5016L270.949 14.5715L281.134 11.3265C289.741 8.61891 301.674 4.96052 314.805 0.992103L317.183 0.289362L318.109 0L317.878 0.930092C314.953 13.6414 312.28 24.8853 310.176 33.0495C309.144 36.9972 308.303 40.2422 307.692 42.6812C307.398 43.6939 307.145 44.562 306.956 45.2648C306.875 45.5777 306.747 45.8772 306.577 46.1535Z" fill="#E6E6E6"/>
<path d="M679.612 315.634C689.009 315.484 698.24 318.074 706.138 323.076C714.036 328.078 720.246 335.268 723.984 343.737C727.721 352.206 728.818 361.572 727.136 370.653C725.453 379.734 721.067 388.121 714.531 394.754C707.996 401.386 699.605 405.967 690.419 407.916C681.233 409.865 671.665 409.095 662.925 405.704C654.184 402.312 646.664 396.452 641.315 388.863C635.966 381.274 633.028 372.298 632.873 363.069C632.681 350.695 637.494 338.753 646.257 329.86C655.019 320.968 667.015 315.851 679.612 315.634ZM680.749 384.627C685.241 384.544 689.608 383.156 693.297 380.637C696.987 378.119 699.833 374.582 701.477 370.475C703.121 366.369 703.489 361.875 702.534 357.563C701.579 353.251 699.344 349.314 696.111 346.249C692.879 343.184 688.794 341.128 684.373 340.343C679.951 339.557 675.392 340.075 671.271 341.833C667.15 343.591 663.651 346.51 661.218 350.219C658.785 353.929 657.526 358.264 657.6 362.676C657.652 365.61 658.292 368.506 659.484 371.197C660.675 373.888 662.395 376.323 664.545 378.361C666.694 380.399 669.232 382.002 672.012 383.077C674.793 384.152 677.761 384.679 680.749 384.627Z" fill="#E0E0E0"/>
<path d="M679.528 309.826C693.699 309.627 707.372 314.954 717.55 324.64C727.727 334.327 733.58 347.581 733.823 361.498L701.415 362.325C701.204 348.497 691.671 342.875 680.37 342.173C677.593 342.01 674.812 342.413 672.201 343.357C669.59 344.301 667.207 345.765 665.2 347.658C663.194 349.551 661.608 351.831 660.543 354.355C659.478 356.88 658.956 359.593 659.01 362.325L626.938 363.172C626.719 349.251 632.134 335.814 641.994 325.812C651.855 315.809 665.355 310.06 679.528 309.826Z" fill="#F0F0F0"/>
<path d="M294.834 521.289C311.194 504.429 333.638 494.549 357.339 493.776C381.039 493.003 404.102 501.398 421.564 517.155C430.142 524.92 437.066 534.28 441.934 544.692C446.802 555.105 449.517 566.363 449.922 577.813C450.327 589.264 448.415 600.68 444.294 611.399C440.174 622.118 433.929 631.928 425.921 640.259C409.561 657.119 387.116 666.998 363.416 667.771C339.715 668.544 316.653 660.149 299.19 644.392C290.612 636.627 283.689 627.267 278.821 616.855C273.953 606.443 271.238 595.185 270.832 583.734C270.427 572.284 272.34 560.868 276.46 550.149C280.58 539.429 286.826 529.62 294.834 521.289ZM391.639 609.214C395.478 605.233 398.473 600.541 400.448 595.412C402.423 590.283 403.339 584.819 403.143 579.338C402.948 573.858 401.643 568.471 399.307 563.49C396.971 558.51 393.649 554.036 389.535 550.329C381.176 542.803 370.143 538.803 358.81 539.19C347.478 539.576 336.754 544.319 328.947 552.395C325.108 556.377 322.113 561.069 320.138 566.198C318.163 571.327 317.247 576.791 317.443 582.271C317.639 587.751 318.943 593.139 321.279 598.119C323.616 603.1 326.938 607.574 331.052 611.281C339.41 618.824 350.454 622.835 361.798 622.448C373.142 622.062 383.876 617.308 391.681 609.214H391.639Z" fill="#F5F5F5"/>
<path d="M294.834 521.289C311.194 504.429 333.638 494.549 357.339 493.776C381.039 493.003 404.102 501.398 421.564 517.155L389.619 550.391C381.26 542.865 370.227 538.865 358.895 539.252C347.562 539.638 336.838 544.381 329.031 552.457C325.192 556.439 322.198 561.131 320.223 566.26C318.247 571.389 317.331 576.853 317.527 582.333C317.723 587.813 319.027 593.201 321.363 598.181C323.7 603.162 327.022 607.636 331.136 611.343L299.148 644.454C290.563 636.686 283.635 627.32 278.765 616.9C273.896 606.481 271.181 595.215 270.78 583.757C270.379 572.299 272.298 560.877 276.427 550.153C280.557 539.43 286.813 529.619 294.834 521.289Z" fill="#E0E0E0"/>
<path d="M417.903 502.873C462.096 543.032 467.462 608.284 426.11 651.358L381.222 613.348C400.983 592.782 405.276 565.313 384.126 546.112L417.903 502.873Z" fill="#EBEBEB"/>
<path d="M376.55 616.076L403.213 667.872C414.239 663.903 424.174 657.471 432.234 649.084L384.337 611.095L376.55 616.076Z" fill="#E0E0E0"/>
<path d="M477.143 137.964C476.755 114.747 483.386 91.9389 496.199 72.4242C509.011 52.9096 527.429 37.5656 549.122 28.3336C570.815 19.1015 594.809 16.3961 618.068 20.5596C641.327 24.7232 662.807 35.5686 679.789 51.7239C696.77 67.8791 708.492 88.6183 713.471 111.318C718.45 134.017 716.461 157.657 707.758 179.246C699.054 200.836 684.027 219.405 664.576 232.605C645.125 245.804 622.125 253.041 598.486 253.4C566.825 253.842 536.276 241.941 513.532 220.305C490.787 198.668 477.702 169.059 477.143 137.964ZM653.77 135.174C653.585 124.078 650.055 113.284 643.625 104.158C637.194 95.0321 628.153 87.9837 617.645 83.904C607.136 79.8243 595.632 78.8967 584.587 81.2382C573.541 83.5798 563.451 89.0855 555.591 97.0591C547.731 105.033 542.456 115.116 540.431 126.035C538.406 136.953 539.722 148.216 544.215 158.399C548.707 168.583 556.173 177.229 565.668 183.246C575.163 189.262 586.262 192.378 597.56 192.2C612.709 191.944 627.135 185.796 637.673 175.105C648.212 164.414 654.001 150.053 653.77 135.174Z" fill="#FAFAFA"/>
<path d="M477.143 137.965C476.665 106.848 488.776 76.8158 510.82 54.4605C532.863 32.1053 563.037 19.2535 594.719 18.726L595.729 79.9677C580.576 80.2062 566.139 86.3471 555.596 97.0394C545.052 107.732 539.266 122.1 539.508 136.983C539.751 151.866 546.004 166.044 556.891 176.399C567.777 186.754 582.406 192.438 597.56 192.2L598.486 253.4C566.821 253.853 536.266 241.956 513.519 220.317C490.773 198.677 477.691 169.062 477.143 137.965Z" fill="#E0E0E0"/>
<path d="M583.986 9.30095C661.072 8.08149 722.585 66.5743 723.806 142.284L650.845 143.442C650.255 107.23 622.077 84.4322 585.228 85.0316L583.986 9.30095Z" fill="#F0F0F0"/>
<path d="M724.753 836.117C724.753 836.406 567.403 836.654 373.309 836.654C179.215 836.654 21.8652 836.406 21.8652 836.117C21.8652 835.827 179.173 835.559 373.309 835.559C567.445 835.559 724.753 835.807 724.753 836.117Z" fill="#263238"/>
<path d="M237.509 549.522L627.464 546.773V552.147L237.509 555.578V549.522Z" fill="#263238"/>
<path d="M229.007 160.142L237.888 552.726L627.464 549.75V153.549L229.007 160.142Z" fill="white"/>
<path d="M229.007 160.142L627.464 153.094H627.948V153.569C627.948 266.979 627.948 400.81 627.948 543.591V550.308H627.401L237.824 553.222H237.361V552.767C232.332 317.473 229.049 164.193 228.944 160.163C228.944 164.131 232.69 317.473 238.287 552.726L237.824 552.271L627.401 549.233L626.854 549.771V543.57C626.854 400.79 626.854 266.959 626.854 153.549L627.338 154.024L229.007 160.142Z" fill="#263238"/>
<path d="M227.449 162.767L629.169 160.514L629.674 143.958L227.449 146.418V162.767Z" fill="#263238"/>
<path d="M419.755 563.433C419.081 563.433 418.366 560.353 418.176 556.509C417.987 552.664 418.408 549.522 419.081 549.481C419.755 549.44 420.47 552.54 420.659 556.385C420.849 560.229 420.449 563.433 419.755 563.433Z" fill="#263238"/>
<path d="M419.607 560.601C419.607 560.456 420.281 560.415 421.333 560.828C421.968 561.091 422.563 561.439 423.101 561.862C423.825 562.433 424.432 563.135 424.889 563.929C425.514 565.027 425.827 566.269 425.798 567.527C425.768 568.784 425.396 570.011 424.721 571.08C424.316 571.724 423.804 572.297 423.206 572.775C422.581 573.268 421.867 573.64 421.101 573.87C419.475 574.312 417.742 574.188 416.198 573.519C415.417 573.177 414.704 572.701 414.094 572.114C413.486 571.525 413.007 570.822 412.684 570.047C412.101 568.637 411.976 567.085 412.326 565.603C412.585 564.367 413.191 563.228 414.077 562.315C414.962 561.401 416.091 560.75 417.334 560.436C418.926 560.008 420.621 560.155 422.112 560.849C423.122 561.345 423.5 561.862 423.416 561.986C423.332 562.11 422.764 561.986 421.796 561.738C420.478 561.496 419.118 561.61 417.861 562.068C417.051 562.378 416.329 562.874 415.756 563.515C415.099 564.271 414.67 565.192 414.518 566.174C414.365 567.157 414.495 568.162 414.893 569.075C415.352 570.057 416.171 570.832 417.187 571.245C418.199 571.69 419.334 571.784 420.407 571.514C421.394 571.263 422.25 570.659 422.806 569.819C423.354 569.028 423.681 568.108 423.753 567.153C423.817 566.721 423.817 566.283 423.753 565.851C423.684 565.445 423.564 565.049 423.395 564.673C422.856 563.457 422.008 562.396 420.933 561.593C420.154 561.056 419.607 560.766 419.607 560.601Z" fill="#263238"/>
<path d="M477.564 374.974C477.564 374.974 477.564 374.974 477.311 374.974H476.596L473.818 375.098L463.106 375.553L423.711 377C390.44 378.198 344.457 379.79 293.698 381.505L276.231 382.084H275.831V381.692C272.295 336.075 269.097 295.192 266.887 265.801C265.793 251.126 264.93 239.325 264.32 231.202C264.046 227.068 263.814 223.988 263.667 221.859C263.667 220.785 263.541 219.978 263.52 219.42C263.499 218.862 263.52 218.945 263.52 218.8C263.52 218.656 263.52 218.594 263.52 218.594C263.53 218.662 263.53 218.732 263.52 218.8C263.52 218.945 263.52 219.152 263.52 219.42C263.52 219.689 263.646 220.785 263.751 221.839C263.92 223.906 264.193 227.109 264.551 231.181C265.203 239.304 266.171 251.106 267.371 265.739C269.728 295.048 272.969 335.827 276.546 381.629L276.126 381.257L293.592 380.658C344.352 378.963 390.397 377.454 423.606 376.421L463.022 375.222L473.734 374.933H476.512H477.48L477.564 374.974Z" fill="#455A64"/>
<path d="M336.502 205.882V211.153L392.018 208.549V204.125L336.502 205.882Z" fill="#263238"/>
<path d="M294.476 370.468H313.774L310.744 319.024H291.825L294.476 370.468Z" fill="#FF725E"/>
<path d="M329.452 370.489H348.729L345.72 298.582H326.801L329.452 370.489Z" fill="#FF725E"/>
<path d="M362.198 368.195H381.496L378.465 274.048H359.567L362.198 368.195Z" fill="#FF725E"/>
<path d="M437.327 364.536H456.603L453.594 236.224H434.675L437.327 364.536Z" fill="#FF725E"/>
<path d="M400.772 364.97H420.049L417.019 254.557H398.121L400.772 364.97Z" fill="#FF725E"/>
<path d="M282.355 305.692C281.85 304.927 316.321 282.357 359.315 255.281C402.309 228.205 437.621 206.874 438.126 207.743C438.631 208.611 404.161 231.078 361.146 258.154C318.13 285.23 282.818 306.457 282.355 305.692Z" fill="#FF725E"/>
<path d="M419.039 207.66C418.871 206.75 431.35 203.691 446.965 200.798L450.922 200.074L448.67 203.361L448.543 203.547C439.621 216.568 431.708 226.717 430.971 226.283C430.235 225.848 436.822 214.811 445.702 201.769L445.829 201.583L447.554 204.146C431.96 206.936 419.207 208.549 419.039 207.66Z" fill="#FF725E"/>
<path d="M291.825 387.851H311.985L312.617 391.364H291.825V387.851Z" fill="#263238"/>
<path d="M327.516 386.404H347.677L348.308 389.918H327.516V386.404Z" fill="#263238"/>
<path d="M364.26 385.371H384.421L385.052 388.884H364.26V385.371Z" fill="#263238"/>
<path d="M398.689 384.523H418.85L419.481 388.057H398.689V384.523Z" fill="#263238"/>
<path d="M441.346 383.283H461.507L462.138 386.817H441.346V383.283Z" fill="#263238"/>
<path d="M531.775 523.376C567.317 523.376 596.129 495.078 596.129 460.171C596.129 425.264 567.317 396.966 531.775 396.966C496.233 396.966 467.42 425.264 467.42 460.171C467.42 495.078 496.233 523.376 531.775 523.376Z" fill="#FF725E"/>
<path opacity="0.3" d="M531.775 523.376C567.317 523.376 596.129 495.078 596.129 460.171C596.129 425.264 567.317 396.966 531.775 396.966C496.233 396.966 467.42 425.264 467.42 460.171C467.42 495.078 496.233 523.376 531.775 523.376Z" fill="black"/>
<path d="M531.775 460.088L468.999 473.957C458.897 428.486 496.23 396.883 531.775 396.883" fill="#FF725E"/>
<path d="M531.859 460.088L531.438 396.883C578.83 396.883 602.316 439.44 594.74 473.544L531.859 460.088Z" fill="#FF725E"/>
<path d="M531.859 460.088L531.438 396.883C578.83 396.883 602.316 439.44 594.74 473.544L531.859 460.088Z" fill="#FF725E"/>
<path opacity="0.1" d="M531.859 460.088L531.438 396.883C578.83 396.883 602.316 439.44 594.74 473.544L531.859 460.088Z" fill="black"/>
<path d="M597.791 310.508C596.541 309.687 595.208 308.994 593.814 308.441C589.927 307.273 585.758 307.39 581.945 308.772C577.02 310.281 572.138 314.125 567.403 318.941C562.668 323.757 557.596 329.585 550.189 332.996C546.615 334.74 542.591 335.395 538.635 334.877C535.066 334.149 531.617 332.939 528.386 331.28C525.543 329.826 522.503 328.775 519.358 328.159C516.623 327.737 513.823 328.081 511.277 329.151C507.532 330.713 504.468 333.524 502.628 337.088C502.036 338.427 501.551 339.809 501.176 341.222C501.242 339.727 501.606 338.259 502.249 336.902C504.011 333.138 507.108 330.133 510.962 328.449C513.601 327.294 516.517 326.886 519.379 327.27C522.628 327.862 525.774 328.906 528.723 330.371C531.869 331.974 535.226 333.142 538.698 333.843C542.442 334.301 546.24 333.668 549.62 332.024C556.733 328.759 561.721 322.971 566.582 318.238C571.444 313.505 576.473 309.516 581.587 308.048C585.559 306.687 589.884 306.687 593.856 308.048C594.916 308.449 595.914 308.992 596.823 309.661C597.18 309.903 597.506 310.187 597.791 310.508Z" fill="#263238"/>
<path d="M603.242 351.35C603.242 351.66 580.388 351.887 552.209 351.887C524.03 351.887 501.176 351.66 501.176 351.35C501.176 351.04 524.03 350.812 552.209 350.812C580.388 350.812 603.242 351.06 603.242 351.35Z" fill="#263238"/>
<path d="M597.56 351.35C597.265 351.35 597.013 338.576 597.013 322.806C597.013 307.036 597.265 294.283 597.56 294.283C597.854 294.283 598.107 307.056 598.107 322.806C598.107 338.556 597.876 351.35 597.56 351.35Z" fill="#263238"/>
<path d="M511.467 327.312C511.467 327.312 511.319 327.105 511.467 326.733C511.563 326.472 511.717 326.235 511.917 326.039C512.117 325.842 512.358 325.691 512.624 325.596C513.024 325.422 513.465 325.36 513.899 325.414C514.333 325.469 514.744 325.639 515.086 325.906C515.457 326.315 515.676 326.835 515.707 327.381C515.738 327.928 515.579 328.469 515.256 328.915C514.934 329.362 514.467 329.687 513.931 329.839C513.396 329.991 512.824 329.96 512.308 329.751C511.946 329.538 511.648 329.235 511.444 328.871C511.241 328.508 511.14 328.098 511.151 327.684C511.147 327.408 511.198 327.135 511.303 326.879C511.408 326.624 511.564 326.391 511.761 326.196C512.077 325.948 512.308 325.948 512.329 325.989C512.351 326.03 511.761 326.588 511.909 327.642C511.938 327.914 512.031 328.174 512.181 328.404C512.331 328.633 512.533 328.826 512.771 328.965C513.067 329.038 513.377 329.022 513.663 328.919C513.949 328.817 514.197 328.631 514.374 328.388C514.551 328.145 514.65 327.855 514.657 327.556C514.663 327.257 514.579 326.963 514.413 326.712C514.202 326.542 513.951 326.425 513.684 326.371C513.416 326.317 513.139 326.328 512.877 326.402C511.803 326.568 511.614 327.353 511.467 327.312Z" fill="#263238"/>
<path d="M580.282 306.581C580.282 306.581 580.282 306.333 580.661 306.126C581.151 305.885 581.717 305.84 582.239 306.002C582.655 306.113 583.031 306.333 583.328 306.639C583.625 306.946 583.83 307.326 583.923 307.738C583.955 308.271 583.804 308.8 583.493 309.238C583.183 309.676 582.731 309.999 582.211 310.154C581.69 310.309 581.132 310.288 580.626 310.093C580.119 309.899 579.694 309.542 579.419 309.082C579.268 308.683 579.229 308.252 579.307 307.833C579.384 307.415 579.576 307.025 579.861 306.705C580.217 306.292 580.723 306.032 581.271 305.981C581.65 305.981 581.84 306.105 581.818 306.167C581.797 306.229 581.019 306.271 580.493 307.16C580.347 307.381 580.256 307.633 580.227 307.894C580.198 308.156 580.231 308.421 580.324 308.668C580.509 308.892 580.758 309.055 581.038 309.139C581.319 309.223 581.618 309.222 581.898 309.138C582.178 309.054 582.427 308.889 582.611 308.666C582.795 308.442 582.908 308.17 582.934 307.883C582.878 307.626 582.761 307.385 582.593 307.18C582.425 306.976 582.21 306.813 581.966 306.705C581.04 306.25 580.388 306.726 580.282 306.581Z" fill="#263238"/>
<path d="M595.75 238.932C595.75 239.221 573.611 239.469 546.316 239.469C519.022 239.469 496.883 239.221 496.883 238.932C496.883 238.642 519.001 238.394 546.316 238.394C573.632 238.394 595.75 238.684 595.75 238.932Z" fill="#263238"/>
<path d="M595.75 252.47C595.75 252.78 573.611 253.007 546.316 253.007C519.022 253.007 496.883 252.78 496.883 252.47C496.883 252.16 519.001 251.932 546.316 251.932C573.632 251.932 595.75 252.181 595.75 252.47Z" fill="#263238"/>
<path d="M595.75 265.967C595.75 266.256 573.611 266.504 546.316 266.504C519.022 266.504 496.883 266.256 496.883 265.967C496.883 265.677 519.001 265.429 546.316 265.429C573.632 265.429 595.75 265.657 595.75 265.967Z" fill="#263238"/>
<path d="M595.75 279.443C595.75 279.753 573.611 279.98 546.316 279.98C519.022 279.98 496.883 279.753 496.883 279.443C496.883 279.133 519.001 278.905 546.316 278.905C573.632 278.905 595.75 279.153 595.75 279.443Z" fill="#263238"/>
<path d="M549.494 214.315H496.883V218.676H549.494V214.315Z" fill="#263238"/>
<path d="M332.314 430.842H279.703V435.203H332.314V430.842Z" fill="#263238"/>
<path d="M423.669 456.12C423.669 456.43 391.744 456.657 352.37 456.657C312.996 456.657 281.05 456.43 281.05 456.12C281.05 455.81 312.975 455.583 352.37 455.583C391.765 455.583 423.669 455.831 423.669 456.12Z" fill="#263238"/>
<path d="M424.511 468.356C424.511 468.645 392.018 468.893 351.949 468.893C311.88 468.893 279.387 468.645 279.387 468.356C279.387 468.067 311.859 467.819 351.949 467.819C392.039 467.819 424.511 468.108 424.511 468.356Z" fill="#263238"/>
<path d="M426.173 479.889C426.173 480.178 393.491 480.427 353.191 480.427C312.89 480.427 280.208 480.178 280.208 479.889C280.208 479.6 312.89 479.352 353.191 479.352C393.491 479.352 426.173 479.579 426.173 479.889Z" fill="#263238"/>
<path d="M356.116 492.166C356.116 492.456 339.28 492.704 318.572 492.704C297.865 492.704 281.05 492.456 281.05 492.166C281.05 491.877 297.886 491.629 318.572 491.629C339.259 491.629 356.116 491.877 356.116 492.166Z" fill="#263238"/>
<path d="M126.941 826.754V808.152L91.3123 807.842L91.0177 835.186L93.1222 835.331C102.95 835.93 143.124 837.687 149.711 835.786C157.161 833.636 126.941 826.754 126.941 826.754Z" fill="#FF725E"/>
<path d="M150.658 834.07C150.658 834.401 137.337 834.67 120.901 834.67C104.465 834.67 91.1229 834.401 91.1229 834.07C91.1229 833.74 104.465 833.471 120.901 833.471C137.337 833.471 150.658 833.74 150.658 834.07Z" fill="#263238"/>
<path d="M127.572 830.577C127.277 830.412 127.572 829.399 128.288 828.51C129.003 827.622 129.992 827.043 130.203 827.27C130.413 827.498 129.95 828.345 129.256 829.337C128.561 830.329 127.867 830.743 127.572 830.577Z" fill="#263238"/>
<path d="M129.845 831.797C129.529 831.673 129.698 830.557 130.392 829.399C131.086 828.242 132.012 827.539 132.265 827.746C132.517 827.952 132.097 828.924 131.444 829.999C130.792 831.073 130.16 831.921 129.845 831.797Z" fill="#263238"/>
<path d="M101.835 833.946C101.687 834.05 101.14 833.554 100.361 832.727C99.4136 831.647 98.3637 830.657 97.2258 829.771C96.0909 828.952 94.7684 828.42 93.3746 828.221C92.3014 828.076 91.6069 828.221 91.5437 828.056C91.4806 827.89 92.154 827.456 93.3957 827.374C95.0319 827.328 96.6353 827.831 97.9413 828.8C99.1861 829.737 100.242 830.893 101.056 832.21C101.708 833.182 102.003 833.843 101.835 833.946Z" fill="#263238"/>
<path d="M127.677 827.064C127.846 827.332 127.214 827.994 126.204 828.345C125.194 828.697 124.289 828.572 124.247 828.242C124.205 827.911 124.899 827.539 125.804 827.229C126.709 826.919 127.488 826.774 127.677 827.064Z" fill="#263238"/>
<path d="M127.088 825.245C127.088 825.575 126.162 825.865 124.983 825.886C123.805 825.906 122.879 825.637 122.879 825.307C122.879 824.976 123.847 824.707 124.983 824.687C126.12 824.666 127.088 824.914 127.088 825.245Z" fill="#FF725E"/>
<path d="M150.658 834.07C150.658 834.401 137.337 834.67 120.901 834.67C104.465 834.67 91.1229 834.401 91.1229 834.07C91.1229 833.74 104.465 833.471 120.901 833.471C137.337 833.471 150.658 833.74 150.658 834.07Z" fill="#263238"/>
<path d="M127.572 830.577C127.277 830.412 127.572 829.399 128.288 828.51C129.003 827.622 129.992 827.043 130.203 827.27C130.413 827.498 129.95 828.345 129.256 829.337C128.561 830.329 127.867 830.743 127.572 830.577Z" fill="#263238"/>
<path d="M129.845 831.797C129.529 831.673 129.698 830.557 130.392 829.399C131.086 828.242 132.012 827.539 132.265 827.746C132.517 827.952 132.097 828.924 131.444 829.999C130.792 831.073 130.16 831.921 129.845 831.797Z" fill="#263238"/>
<path d="M101.835 833.946C101.687 834.05 101.14 833.554 100.361 832.727C99.4136 831.647 98.3637 830.657 97.2258 829.771C96.0909 828.952 94.7684 828.42 93.3746 828.221C92.3014 828.076 91.6069 828.221 91.5437 828.056C91.4806 827.89 92.154 827.456 93.3957 827.374C95.0319 827.328 96.6353 827.831 97.9413 828.8C99.1861 829.737 100.242 830.893 101.056 832.21C101.708 833.182 102.003 833.843 101.835 833.946Z" fill="#263238"/>
<path d="M127.677 827.064C127.846 827.332 127.214 827.994 126.204 828.345C125.194 828.697 124.289 828.572 124.247 828.242C124.205 827.911 124.899 827.539 125.804 827.229C126.709 826.919 127.488 826.774 127.677 827.064Z" fill="#263238"/>
<path d="M127.088 825.245C127.088 825.575 126.162 825.865 124.983 825.886C123.805 825.906 122.879 825.637 122.879 825.307C122.879 824.976 123.847 824.707 124.983 824.687C126.12 824.666 127.088 824.914 127.088 825.245Z" fill="#263238"/>
<path d="M164.526 820.14L170.145 802.302L136.179 791.72L127.761 817.742L129.866 818.527C139.062 821.958 176.921 835.31 183.782 835.414C191.316 835.496 164.526 820.14 164.526 820.14Z" fill="#FF725E"/>
<path d="M184.982 834.008C184.982 834.339 172.06 830.722 156.361 825.927C140.662 821.132 128.014 817.019 128.119 816.709C128.224 816.399 141.019 820.016 156.74 824.79C172.46 829.565 185.087 833.698 184.982 834.008Z" fill="#263238"/>
<path d="M163.979 823.963C163.748 823.715 164.295 822.847 165.305 822.124C166.315 821.4 167.409 821.214 167.515 821.504C167.62 821.793 166.946 822.455 166.02 823.116C165.094 823.777 164.211 824.191 163.979 823.963Z" fill="#263238"/>
<path d="M165.768 825.803C165.515 825.596 165.999 824.563 167.03 823.736C168.062 822.909 169.135 822.434 169.324 822.703C169.514 822.971 168.798 823.777 167.851 824.625C166.904 825.472 166.041 825.927 165.768 825.803Z" fill="#263238"/>
<path d="M138.41 819.726C138.242 819.726 137.884 819.168 137.4 818.135C136.822 816.831 136.117 815.585 135.295 814.414C134.46 813.304 133.362 812.411 132.097 811.81C131.107 811.376 130.392 811.293 130.392 811.128C130.392 810.963 131.15 810.715 132.37 811.004C133.94 811.442 135.312 812.389 136.263 813.691C137.164 814.941 137.828 816.342 138.221 817.825C138.494 818.941 138.557 819.726 138.41 819.726Z" fill="#455A64"/>
<path d="M165.137 820.636C165.137 820.946 164.421 821.4 163.348 821.442C162.274 821.483 161.433 821.09 161.496 820.76C161.559 820.429 162.359 820.284 163.306 820.243C164.253 820.202 164.968 820.305 165.137 820.636Z" fill="#263238"/>
<path d="M165.137 818.755C165.137 819.065 164.084 819.065 162.927 818.755C161.769 818.445 160.949 817.887 161.054 817.577C161.159 817.267 162.169 817.287 163.264 817.577C164.358 817.866 165.221 818.424 165.137 818.755Z" fill="#263238"/>
<path d="M188.706 457.257L141.945 453.722L71.1095 448.08L79.0223 821.793L140.535 821.008C140.535 821.008 140.535 816.874 140.388 809.557L176.459 819.251C176.459 819.251 211.603 702.637 223.577 654.789C233.573 614.919 188.706 457.257 188.706 457.257ZM139.715 751.519C138.789 665.247 137.715 518.54 138.999 500.599C138.999 500.599 173.26 629.759 173.575 639.949C173.786 646.108 154.698 705.717 139.715 751.519Z" fill="#455A64"/>
<path d="M140.872 806.849C140.872 807.18 127.109 807.449 110.147 807.449C93.1852 807.449 79.401 807.18 79.401 806.849C79.401 806.519 93.1641 806.25 110.147 806.25C127.13 806.25 140.872 806.519 140.872 806.849Z" fill="#455A64"/>
<path d="M140.325 793.415C142.249 793.863 144.135 794.457 145.965 795.192L160.044 800.008L174.123 804.845C176.114 805.404 178.045 806.151 179.889 807.077C177.833 806.796 175.81 806.318 173.849 805.651C170.187 804.597 165.158 803.026 159.644 801.145C154.13 799.264 149.122 797.404 145.67 795.978C143.776 795.371 141.977 794.508 140.325 793.415Z" fill="#455A64"/>
<path d="M196.682 638.791C192.878 639.662 188.992 640.147 185.087 640.238C181.213 640.724 177.299 640.814 173.407 640.507C177.209 639.62 181.096 639.128 185.003 639.039C188.876 638.554 192.791 638.471 196.682 638.791Z" fill="#455A64"/>
<path d="M192.663 645.57C189.638 645.32 186.659 644.68 183.803 643.669C180.831 643.032 177.958 642.01 175.259 640.631C178.293 640.857 181.281 641.489 184.14 642.512C188.938 643.876 192.768 645.24 192.663 645.57Z" fill="#455A64"/>
<path d="M144.66 454.198C144.943 456.557 145.048 458.933 144.976 461.308C144.976 465.71 144.976 471.787 144.976 478.504C144.976 481.832 144.976 485.015 144.85 487.95C144.927 490.594 144.424 493.223 143.376 495.659C142.63 497.32 141.437 498.749 139.925 499.793C139.41 500.213 138.794 500.497 138.136 500.62C138.136 500.62 138.726 500.248 139.673 499.462C141.001 498.344 142.034 496.925 142.682 495.329C143.559 492.961 143.953 490.447 143.839 487.929C143.839 484.974 143.839 481.729 143.839 478.463C143.839 471.746 144.008 465.669 144.134 461.287C144.127 458.914 144.303 456.544 144.66 454.198Z" fill="#455A64"/>
<path d="M109.453 452.09C109.475 452.392 109.475 452.696 109.453 452.999C109.453 453.66 109.453 454.549 109.453 455.686C109.453 458.083 109.263 461.556 109.116 466.02C108.821 475.011 108.4 487.929 107.874 503.865C106.885 535.819 105.875 579.988 105.623 628.746C105.37 677.504 105.938 721.756 106.591 753.689C106.948 769.625 107.222 782.626 107.432 791.534C107.432 795.978 107.601 799.429 107.664 801.868C107.664 803.005 107.664 803.935 107.664 804.555C107.687 804.858 107.687 805.162 107.664 805.465C107.641 805.162 107.641 804.858 107.664 804.555C107.664 803.915 107.664 803.026 107.517 801.889C107.517 799.471 107.285 796.019 107.096 791.555C106.738 782.626 106.317 769.687 105.896 753.71C105.033 721.735 104.36 677.566 104.612 628.746C104.865 579.926 106.001 535.736 107.18 503.844C107.769 487.867 108.316 474.908 108.779 466C109.011 461.576 109.2 458.125 109.326 455.665C109.326 454.528 109.453 453.598 109.495 452.978C109.459 452.683 109.445 452.386 109.453 452.09Z" fill="#455A64"/>
<path d="M173.386 461.494C173.514 461.768 173.619 462.051 173.702 462.341C173.891 462.961 174.165 463.788 174.501 464.863C175.175 467.074 176.248 470.34 177.427 474.598C179.847 483.093 183.109 495.432 186.749 510.789C190.39 526.146 194.431 544.459 198.639 564.879C202.848 585.3 207.289 607.788 211.266 631.516C211.771 634.492 212.234 637.448 212.634 640.403C212.634 641.189 212.781 641.995 212.781 642.76L212.403 644.95C212.129 646.418 211.919 647.885 211.582 649.312C210.382 655.057 209.036 660.679 207.583 666.177C204.721 677.173 201.691 687.694 198.703 697.697C192.768 717.705 187.044 735.604 182.183 750.63C177.321 765.656 173.26 777.748 170.398 786.098L167.073 795.709L166.168 798.21C166.089 798.498 165.976 798.775 165.831 799.037C165.886 798.742 165.963 798.452 166.063 798.169C166.273 797.549 166.526 796.722 166.862 795.647L169.998 785.974L181.446 750.403C186.202 735.356 191.842 717.436 197.735 697.429C200.681 687.425 203.69 676.884 206.552 665.909C207.983 660.431 209.33 654.83 210.53 649.105C210.866 647.679 211.056 646.232 211.308 644.785L211.687 642.615C211.687 641.912 211.582 641.23 211.54 640.548C211.14 637.634 210.698 634.678 210.193 631.722C206.194 608.015 201.775 585.528 197.566 565.107C193.357 544.686 189.548 526.229 186.013 510.954C182.477 495.68 179.3 483.217 177.006 474.701C175.911 470.443 174.901 467.157 174.291 464.925L173.596 462.383C173.493 462.095 173.423 461.797 173.386 461.494Z" fill="#455A64"/>
<path d="M139.525 743.934C139.695 744.895 139.758 745.873 139.715 746.848C139.715 748.915 139.715 751.622 139.82 754.826C139.82 761.75 140.073 770.948 140.22 781.096C140.367 791.245 140.767 800.442 140.956 807.366C140.956 810.57 141.125 813.257 141.188 815.344C141.283 816.314 141.283 817.29 141.188 818.259C140.956 817.31 140.829 816.34 140.809 815.365C140.641 813.484 140.451 810.777 140.241 807.408C139.82 800.69 139.42 791.389 139.189 781.117C138.957 770.844 138.999 761.543 139.189 754.826C139.189 751.457 139.336 748.625 139.42 746.848C139.377 745.875 139.413 744.901 139.525 743.934Z" fill="#455A64"/>
<path d="M188.706 457.257L141.945 453.722L71.1095 448.08L79.0223 821.793L140.535 821.008C140.535 821.008 140.535 816.874 140.388 809.557L176.459 819.251C176.459 819.251 211.603 702.637 223.577 654.789C233.573 614.919 188.706 457.257 188.706 457.257ZM139.715 751.519C138.789 665.247 137.715 518.54 138.999 500.599C138.999 500.599 173.26 629.759 173.575 639.949C173.786 646.108 154.698 705.717 139.715 751.519Z" fill="#263238"/>
<path d="M140.872 806.849C140.872 807.18 127.109 807.449 110.147 807.449C93.1852 807.449 79.401 807.18 79.401 806.849C79.401 806.519 93.1641 806.25 110.147 806.25C127.13 806.25 140.872 806.519 140.872 806.849Z" fill="#455A64"/>
<path d="M140.325 793.415C142.249 793.863 144.135 794.457 145.965 795.192L160.044 800.008L174.123 804.845C176.114 805.404 178.045 806.151 179.889 807.077C177.833 806.796 175.81 806.318 173.849 805.651C170.187 804.597 165.158 803.026 159.644 801.145C154.13 799.264 149.122 797.404 145.67 795.978C143.776 795.371 141.977 794.508 140.325 793.415Z" fill="#455A64"/>
<path d="M196.682 638.791C192.878 639.662 188.992 640.147 185.087 640.238C181.213 640.724 177.299 640.814 173.407 640.507C177.209 639.62 181.096 639.128 185.003 639.039C188.876 638.554 192.791 638.471 196.682 638.791Z" fill="#455A64"/>
<path d="M192.663 645.57C189.638 645.32 186.659 644.68 183.803 643.669C180.831 643.032 177.958 642.01 175.259 640.631C178.293 640.857 181.281 641.489 184.14 642.512C188.938 643.876 192.768 645.24 192.663 645.57Z" fill="#455A64"/>
<path d="M144.66 454.198C144.943 456.557 145.048 458.933 144.976 461.308C144.976 465.71 144.976 471.787 144.976 478.504C144.976 481.832 144.976 485.015 144.85 487.95C144.927 490.594 144.424 493.223 143.376 495.659C142.63 497.32 141.437 498.749 139.925 499.793C139.41 500.213 138.794 500.497 138.136 500.62C138.136 500.62 138.726 500.248 139.673 499.462C141.001 498.344 142.034 496.925 142.682 495.329C143.559 492.961 143.953 490.447 143.839 487.929C143.839 484.974 143.839 481.729 143.839 478.463C143.839 471.746 144.008 465.669 144.134 461.287C144.127 458.914 144.303 456.544 144.66 454.198Z" fill="#455A64"/>
<path d="M109.453 452.09C109.475 452.392 109.475 452.696 109.453 452.999C109.453 453.66 109.453 454.549 109.453 455.686C109.453 458.083 109.263 461.556 109.116 466.02C108.821 475.011 108.4 487.929 107.874 503.865C106.885 535.819 105.875 579.988 105.623 628.746C105.37 677.504 105.938 721.756 106.591 753.689C106.948 769.625 107.222 782.626 107.432 791.534C107.432 795.978 107.601 799.429 107.664 801.868C107.664 803.005 107.664 803.935 107.664 804.555C107.687 804.858 107.687 805.162 107.664 805.465C107.641 805.162 107.641 804.858 107.664 804.555C107.664 803.915 107.664 803.026 107.517 801.889C107.517 799.471 107.285 796.019 107.096 791.555C106.738 782.626 106.317 769.687 105.896 753.71C105.033 721.735 104.36 677.566 104.612 628.746C104.865 579.926 106.001 535.736 107.18 503.844C107.769 487.867 108.316 474.908 108.779 466C109.011 461.576 109.2 458.125 109.326 455.665C109.326 454.528 109.453 453.598 109.495 452.978C109.459 452.683 109.445 452.386 109.453 452.09Z" fill="#455A64"/>
<path d="M173.386 461.494C173.514 461.768 173.619 462.051 173.702 462.341C173.891 462.961 174.165 463.788 174.501 464.863C175.175 467.074 176.248 470.34 177.427 474.598C179.847 483.093 183.109 495.432 186.749 510.789C190.39 526.146 194.431 544.459 198.639 564.879C202.848 585.3 207.289 607.788 211.266 631.516C211.771 634.492 212.234 637.448 212.634 640.403C212.634 641.189 212.781 641.995 212.781 642.76L212.403 644.95C212.129 646.418 211.919 647.885 211.582 649.312C210.382 655.057 209.036 660.679 207.583 666.177C204.721 677.173 201.691 687.694 198.703 697.697C192.768 717.705 187.044 735.604 182.183 750.63C177.321 765.656 173.26 777.748 170.398 786.098L167.073 795.709L166.168 798.21C166.089 798.498 165.976 798.775 165.831 799.037C165.886 798.742 165.963 798.452 166.063 798.169C166.273 797.549 166.526 796.722 166.862 795.647L169.998 785.974L181.446 750.403C186.202 735.356 191.842 717.436 197.735 697.429C200.681 687.425 203.69 676.884 206.552 665.909C207.983 660.431 209.33 654.83 210.53 649.105C210.866 647.679 211.056 646.232 211.308 644.785L211.687 642.615C211.687 641.912 211.582 641.23 211.54 640.548C211.14 637.634 210.698 634.678 210.193 631.722C206.194 608.015 201.775 585.528 197.566 565.107C193.357 544.686 189.548 526.229 186.013 510.954C182.477 495.68 179.3 483.217 177.006 474.701C175.911 470.443 174.901 467.157 174.291 464.925L173.596 462.383C173.493 462.095 173.423 461.797 173.386 461.494Z" fill="#455A64"/>
<path d="M139.525 743.934C139.695 744.895 139.758 745.873 139.715 746.848C139.715 748.915 139.715 751.622 139.82 754.826C139.82 761.75 140.073 770.948 140.22 781.096C140.367 791.245 140.767 800.442 140.956 807.366C140.956 810.57 141.125 813.257 141.188 815.344C141.283 816.314 141.283 817.29 141.188 818.259C140.956 817.31 140.829 816.34 140.809 815.365C140.641 813.484 140.451 810.777 140.241 807.408C139.82 800.69 139.42 791.389 139.189 781.117C138.957 770.844 138.999 761.543 139.189 754.826C139.189 751.457 139.336 748.625 139.42 746.848C139.377 745.875 139.413 744.901 139.525 743.934Z" fill="#455A64"/>
<path d="M108.148 277.893L143.924 280.497C144.408 276.363 145.102 260.634 145.102 260.634C145.102 260.634 160.023 259.291 161.117 244.781C162.211 230.272 161.748 196.767 161.748 196.767C153.569 192.707 144.434 190.867 135.288 191.438C126.142 192.008 117.317 194.968 109.726 200.012L107.432 201.542L108.148 277.893Z" fill="#E5BAAB"/>
<path d="M156.656 221.508C156.372 221.215 156.182 220.846 156.11 220.449C156.037 220.051 156.085 219.64 156.248 219.269C156.41 218.897 156.68 218.581 157.023 218.358C157.367 218.136 157.77 218.017 158.181 218.017C158.593 218.017 158.996 218.136 159.339 218.358C159.683 218.581 159.953 218.897 160.115 219.269C160.277 219.64 160.325 220.051 160.253 220.449C160.18 220.846 159.991 221.215 159.707 221.508C159.51 221.711 159.274 221.873 159.011 221.984C158.749 222.094 158.467 222.151 158.181 222.151C157.896 222.151 157.613 222.094 157.351 221.984C157.089 221.873 156.852 221.711 156.656 221.508Z" fill="#263238"/>
<path d="M160.444 218.408C160.191 218.656 158.823 217.478 156.782 217.333C154.741 217.188 153.204 218.139 152.994 217.87C152.783 217.602 153.141 217.312 153.836 216.878C154.731 216.301 155.799 216.038 156.866 216.134C157.941 216.197 158.963 216.612 159.77 217.312C160.38 217.829 160.57 218.263 160.444 218.408Z" fill="#263238"/>
<path d="M136.874 218.738C137.207 218.977 137.461 219.307 137.605 219.687C137.749 220.067 137.776 220.48 137.682 220.875C137.589 221.27 137.379 221.629 137.08 221.908C136.78 222.187 136.404 222.373 135.997 222.443C135.591 222.513 135.172 222.465 134.794 222.303C134.415 222.142 134.094 221.874 133.869 221.535C133.643 221.195 133.525 220.798 133.528 220.392C133.531 219.987 133.655 219.592 133.885 219.255C134.043 219.024 134.247 218.827 134.485 218.675C134.722 218.523 134.989 218.42 135.268 218.372C135.547 218.324 135.833 218.331 136.109 218.394C136.385 218.457 136.645 218.574 136.874 218.738Z" fill="#263238"/>
<path d="M138.22 218.842C137.968 219.069 136.6 217.891 134.559 217.746C132.517 217.602 130.981 218.573 130.771 218.304C130.56 218.036 130.918 217.726 131.591 217.291C132.504 216.735 133.571 216.475 134.643 216.547C135.715 216.624 136.733 217.037 137.547 217.726C138.157 218.263 138.347 218.738 138.22 218.842Z" fill="#263238"/>
<path d="M145.355 235.831C146.431 235.504 147.553 235.344 148.68 235.356C149.227 235.356 149.669 235.253 149.732 234.963C149.785 234.43 149.683 233.892 149.437 233.413L148.09 229.279C146.795 225.745 145.843 222.098 145.249 218.387C146.88 221.78 148.184 225.316 149.143 228.949L150.405 233.082C150.709 233.766 150.769 234.531 150.574 235.253C150.485 235.446 150.351 235.616 150.183 235.749C150.015 235.882 149.817 235.974 149.606 236.017C149.305 236.056 149.001 236.056 148.701 236.017C147.582 236.131 146.453 236.069 145.355 235.831Z" fill="#263238"/>
<path d="M138.599 237.63C136.495 236.265 144.239 241.04 148.406 241.102C147.649 242.109 146.566 242.834 145.335 243.157C144.104 243.48 142.797 243.382 141.63 242.88C137.295 240.999 138.599 237.63 138.599 237.63Z" fill="white"/>
<path d="M145.018 260.427C138.185 260.144 131.592 257.87 126.078 253.896C126.078 253.896 129.971 264.623 144.807 264.23L145.018 260.427Z" fill="#D78776"/>
<path d="M110.252 214.419C109.916 214.295 99.2671 212.93 100.277 225.29C101.287 237.65 113.662 232.545 113.641 232.194C113.62 231.842 110.252 214.419 110.252 214.419Z" fill="#E5BAAB"/>
<path d="M109.326 228.163C109.326 228.163 109.137 228.329 108.779 228.535C108.273 228.791 107.687 228.85 107.138 228.701C106.286 228.254 105.569 227.595 105.059 226.789C104.549 225.984 104.264 225.06 104.234 224.112C104.118 223.057 104.247 221.99 104.612 220.991C104.697 220.596 104.876 220.226 105.136 219.913C105.396 219.6 105.729 219.353 106.107 219.193C106.355 219.114 106.623 219.121 106.868 219.211C107.113 219.301 107.319 219.469 107.453 219.689C107.643 220.02 107.601 220.268 107.664 220.289C107.727 220.309 107.916 220.061 107.664 219.565C107.576 219.262 107.382 218.998 107.117 218.821C106.743 218.603 106.301 218.529 105.875 218.614C105.374 218.754 104.917 219.017 104.549 219.379C104.181 219.741 103.913 220.189 103.771 220.681C103.317 221.788 103.15 222.989 103.287 224.174C103.31 225.278 103.666 226.351 104.311 227.256C104.955 228.161 105.858 228.858 106.906 229.259C107.251 229.33 107.608 229.324 107.95 229.242C108.293 229.16 108.612 229.003 108.884 228.783C109.326 228.473 109.39 228.184 109.326 228.163Z" fill="#D78776"/>
<path d="M162.695 191.538C163.547 191.516 164.382 191.301 165.136 190.911C165.89 190.521 166.542 189.966 167.043 189.289C167.543 188.612 167.879 187.831 168.023 187.006C168.167 186.181 168.116 185.335 167.873 184.532C167.631 183.73 167.204 182.993 166.626 182.379C166.047 181.764 165.333 181.289 164.537 180.989C163.742 180.689 162.887 180.573 162.038 180.65C161.19 180.727 160.37 180.994 159.644 181.431C161.404 179.996 162.838 178.215 163.853 176.202C164.344 175.187 164.506 174.048 164.318 172.939C164.13 171.831 163.6 170.805 162.801 170.001C161.875 169.399 160.803 169.048 159.695 168.983C158.586 168.917 157.48 169.14 156.487 169.629C153.352 170.952 150.868 173.556 147.649 174.652C144.429 175.747 140.83 175.21 137.379 175.354C133.506 175.422 129.755 176.696 126.667 178.992C124.036 181.023 122.333 183.996 121.932 187.26C121.518 186.702 121.061 186.177 120.564 185.689C118.927 183.77 116.719 182.404 114.251 181.782C114.104 182.051 116.987 183.622 119.743 186.433C120.494 187.138 121.197 187.891 121.848 188.686C117.05 188.107 111.768 188.066 107.98 191.001C106.445 192.344 105.232 194.005 104.428 195.863C103.624 197.721 103.249 199.731 103.329 201.749C103.329 205.758 105.012 209.582 106.212 213.426C106.502 214.516 107.002 215.54 107.685 216.444L109.495 226.779L116.082 226.655L115.661 204.973C115.661 204.973 114.987 195.837 122.984 196.705C130.981 197.573 141.924 206.358 157.455 204.125C160.004 203.986 162.486 203.279 164.716 202.059C165.795 201.387 166.672 200.445 167.256 199.33C167.841 198.214 168.112 196.966 168.041 195.713C167.888 194.467 167.241 193.33 166.24 192.548C165.24 191.767 163.966 191.404 162.695 191.538Z" fill="#263238"/>
<path d="M296.539 298.541L297.507 291.968C298.496 288.373 299.116 284.689 299.359 280.972C299.517 279.125 299.346 277.264 298.854 275.474C298.357 273.221 297.535 271.05 296.412 269.026C295.192 267.269 296.791 264.892 298.517 265.615C300.243 266.339 303.841 271.01 304.999 277.748C306.156 284.486 311.564 275.144 313.585 271.775C315.605 268.406 322.402 258.257 323.96 258.05C326.233 257.74 326.99 260.117 324.865 263.404C322.739 266.69 317.141 277.128 319.014 278.079C320.417 277.859 321.85 277.929 323.223 278.285C323.445 278.349 323.64 278.479 323.784 278.656C323.927 278.834 324.01 279.051 324.023 279.277C324.015 280.32 324.128 281.36 324.36 282.378C324.36 282.378 327.116 281.758 327.685 282.936C328.069 284.146 328.247 285.41 328.211 286.677C328.211 286.677 330.315 285.974 331.325 286.677C333.43 288.351 330.736 291.224 330.736 291.224C324.539 298.483 317.883 305.352 310.807 311.789L296.307 298.065" fill="#E5BAAB"/>
<path d="M323.518 282.832C322.899 284.11 322.067 285.277 321.056 286.284C320.214 287.276 319.162 288.351 317.92 289.653C317.272 290.33 316.569 290.952 315.815 291.513C315.352 291.875 314.792 292.099 314.202 292.158C313.613 292.216 313.019 292.107 312.49 291.844C312.202 291.678 311.959 291.447 311.779 291.171C311.6 290.894 311.49 290.579 311.459 290.252C311.417 289.67 311.548 289.088 311.838 288.578C312.357 287.811 312.919 287.072 313.522 286.367C314.595 285.044 315.479 283.804 316.215 282.729C316.922 281.514 317.732 280.359 318.635 279.277C318.285 280.652 317.686 281.954 316.868 283.122C316.103 284.451 315.26 285.734 314.342 286.966C313.784 287.625 313.264 288.316 312.785 289.033C312.406 289.715 312.427 290.563 313.038 290.873C313.381 291.015 313.757 291.065 314.127 291.018C314.497 290.971 314.847 290.828 315.142 290.604C315.841 290.085 316.502 289.518 317.12 288.909C318.383 287.752 319.477 286.656 320.382 285.726C321.325 284.659 322.375 283.69 323.518 282.832Z" fill="#D78776"/>
<path d="M327.201 287.069C326.581 288.172 325.786 289.17 324.844 290.025C323.893 291.025 322.858 291.945 321.75 292.774C321.085 293.268 320.381 293.711 319.646 294.097C319.209 294.312 318.74 294.459 318.257 294.531C317.964 294.578 317.665 294.563 317.378 294.488C317.092 294.414 316.824 294.28 316.594 294.097C316.206 293.702 315.96 293.193 315.895 292.648C315.831 292.102 315.95 291.551 316.236 291.079C316.662 290.343 317.163 289.65 317.731 289.012C318.656 287.958 319.519 286.945 320.382 285.933C321.918 284.197 322.929 283.184 323.055 283.266C322.499 284.401 321.792 285.458 320.95 286.408L318.593 289.694C318.096 290.279 317.646 290.901 317.247 291.555C317.084 291.818 317.009 292.125 317.032 292.432C317.054 292.739 317.174 293.032 317.373 293.27C317.752 293.622 318.551 293.477 319.246 293.146C319.937 292.795 320.604 292.401 321.245 291.968C322.338 291.202 323.385 290.374 324.381 289.488C325.217 288.572 326.164 287.76 327.201 287.069Z" fill="#D78776"/>
<path d="M328.063 292.981C328.169 292.981 328.063 293.911 327.074 295.048C326.774 295.4 326.406 295.689 325.99 295.898C325.574 296.108 325.12 296.233 324.654 296.267C324.051 296.272 323.465 296.075 322.992 295.709C322.731 295.494 322.522 295.225 322.38 294.922C322.238 294.618 322.166 294.287 322.171 293.952C322.338 292.899 322.772 291.904 323.434 291.059C323.878 290.376 324.362 289.721 324.886 289.095C325.791 288.02 326.443 287.462 326.569 287.566C326.695 287.669 326.232 288.372 325.517 289.632C325.096 290.356 324.675 291.017 324.296 291.699C323.789 292.428 323.438 293.251 323.265 294.118C323.281 294.469 323.435 294.8 323.694 295.042C323.952 295.285 324.296 295.42 324.654 295.42C325.353 295.398 326.019 295.126 326.527 294.655C327.474 293.663 327.916 292.898 328.063 292.981Z" fill="#D78776"/>
<path d="M294.96 290.004C294.96 290.004 239.76 343.351 232.016 343.743C223.177 344.157 195.988 306.292 195.988 306.292C178.584 279.918 155.624 275.66 147.249 274.999V271.733L106.107 268.426C106.107 268.426 106.107 271.899 106.107 274.937H87.9451C87.9451 274.937 55.3261 273.469 50.4437 316.502L73.8874 334.711L83.5047 369.848C86.8508 382.084 74.8975 401.575 69.1944 433.136C68.3149 438.398 69.209 443.797 71.7408 448.514L190.537 461.928L184.224 372.721L182.309 352.052C192.095 365.177 209.667 383.738 231.195 383.324C267.918 382.642 318.93 306.85 318.93 306.85L294.96 290.004Z" fill="#E0E0E0"/>
<path d="M133.401 271.154C133.605 272.989 133.605 274.839 133.401 276.673C133.094 281.265 132.462 285.83 131.507 290.335L131.36 291.017L130.729 290.687C129.298 289.942 127.803 289.157 126.288 288.289C120.396 284.879 115.366 281.365 111.557 278.926C109.501 277.697 107.519 276.351 105.623 274.896C106.252 275.076 106.854 275.341 107.411 275.681C108.506 276.28 110.084 277.148 111.978 278.285C115.808 280.559 120.901 283.99 126.709 287.359C128.182 288.206 129.655 289.012 131.086 289.756L130.308 290.108C131.528 284.775 132.118 280.001 132.56 276.611C132.727 274.777 133.009 272.955 133.401 271.154Z" fill="#FAFAFA"/>
<path d="M147.375 275.226C147.111 277.002 146.717 278.756 146.196 280.476C145.797 282.109 145.376 284.052 144.66 286.16C144.288 287.275 143.845 288.365 143.334 289.426C143.187 289.806 142.922 290.131 142.577 290.356C142.337 290.5 142.055 290.561 141.776 290.527C141.496 290.493 141.237 290.367 141.041 290.17C140.646 289.599 140.328 288.981 140.094 288.33C137.989 283.638 136.327 279.381 135.106 276.26C134.338 274.625 133.753 272.913 133.359 271.154C134.342 272.675 135.167 274.288 135.821 275.97C137.231 279.009 139.104 283.225 141.104 287.917C141.298 288.439 141.537 288.944 141.819 289.426C141.924 289.426 141.819 289.426 142.009 289.426C142.167 289.3 142.29 289.136 142.366 288.95C142.87 287.934 143.319 286.892 143.713 285.829C144.45 283.762 144.955 281.861 145.439 280.269C145.857 278.513 146.508 276.817 147.375 275.226Z" fill="#FAFAFA"/>
<path d="M139.715 419.577C139.614 419.094 139.558 418.603 139.546 418.11C139.546 417.035 139.462 415.657 139.294 413.976C139.125 410.173 138.873 404.903 138.578 398.433C138.073 385.205 137.358 367.12 136.6 347.154C135.843 327.188 135.359 309.102 134.938 295.874C134.79 289.384 134.664 284.114 134.559 280.311C134.559 278.575 134.559 277.169 134.559 276.177C134.504 275.682 134.504 275.183 134.559 274.689C134.656 275.172 134.705 275.664 134.706 276.156C134.706 277.231 134.874 278.637 134.98 280.29C135.148 284.072 135.401 289.343 135.695 295.812C136.2 309.04 136.895 327.126 137.673 347.092C138.452 367.058 138.894 385.143 139.336 398.392C139.483 404.861 139.61 410.132 139.715 413.935C139.715 415.692 139.715 417.097 139.715 418.172C139.764 418.639 139.764 419.11 139.715 419.577Z" fill="#F5F5F5"/>
<path d="M132.223 284.217L135.674 293.559L138.641 283.535L134.033 273.49L132.223 284.217Z" fill="#FF725E"/>
<path d="M136.306 290.769L134.033 395.932L150.195 429.126L156.571 391.778L136.306 290.769Z" fill="#FF725E"/>
<path d="M232.605 356.744C232.605 356.744 232.605 357.054 232.605 357.571L232.479 358.356L232.121 357.571C231.307 355.48 230.838 353.275 230.732 351.04C230.384 348.546 230.688 346.007 231.616 343.661C231.932 343.661 231.616 346.968 231.827 350.978C231.995 353.83 232.458 356.269 232.605 357.447H232.121C232.311 356.889 232.521 356.744 232.605 356.744Z" fill="#FAFAFA"/>
<path d="M237.34 356.393C235.771 354.775 234.604 352.823 233.931 350.688C232.919 348.717 232.365 346.55 232.311 344.343C233.382 346.265 234.256 348.286 234.92 350.378C235.924 352.301 236.734 354.315 237.34 356.393Z" fill="#FAFAFA"/>
<path d="M315.479 311.872C310.927 309.507 306.553 306.827 302.389 303.853C298.026 301.178 293.863 298.201 289.931 294.944C294.48 297.328 298.854 300.021 303.02 303.005C307.382 305.667 311.545 308.63 315.479 311.872Z" fill="#FAFAFA"/>
<path d="M86.0301 328.759C86.0301 328.759 77.2755 388.698 81.4213 392.047C104.318 410.959 136.137 420.88 147.501 424.001C149.164 423.608 151.1 423.091 153.331 422.388C155.264 421.785 157.079 420.863 158.697 419.66C160.763 418.237 162.618 416.54 164.211 414.617C164.451 414.204 164.816 413.875 165.255 413.675C165.694 413.475 166.186 413.414 166.662 413.501C167.138 413.587 167.574 413.816 167.912 414.157C168.25 414.497 168.471 414.933 168.546 415.402C168.651 417.469 165.284 422.781 158.949 426.667C158.949 426.667 173.533 449.713 178.184 451.8C182.835 453.888 196.135 459.758 193.883 460.874C191.632 461.99 175.448 457.381 175.448 457.381L142.619 448.762C142.619 448.762 34.029 432.041 41.2473 383.118C45.6877 353.127 50.5279 326.113 52.2746 319.272L86.0301 328.759Z" fill="#E5BAAB"/>
<path d="M50.4438 316.481L40.8054 381.815C38.5536 401.926 52.2747 417.903 70.7308 426.894C98.8252 440.556 140.535 450.312 140.178 450.25C139.82 450.188 142.998 421.086 142.998 421.086C142.998 421.086 84.5149 396.284 82.6841 385.536C80.8532 374.788 90.1128 330.143 90.1128 330.143L50.4438 316.481Z" fill="#E0E0E0"/>
<path d="M140.093 450.25C140.071 450.078 140.071 449.905 140.093 449.733C140.093 449.32 140.093 448.824 140.199 448.225C140.304 446.798 140.451 444.876 140.662 442.417C141.104 437.291 141.756 430.015 142.535 421.066L142.766 421.438L113.304 407.445L104.886 403.311C102.045 401.823 99.1829 400.19 96.3419 398.392C93.4594 396.565 90.6906 394.57 88.0503 392.419C86.7245 391.323 85.3987 390.166 84.136 388.946C83.424 388.332 82.8506 387.579 82.4525 386.735C82.2294 386.325 82.0664 385.887 81.9684 385.433C81.8303 385.001 81.7317 384.558 81.6738 384.11C80.7268 376.958 82.6629 370.22 83.7783 363.792C84.8936 357.364 86.009 351.102 87.0612 345.19C89.1657 333.326 91.0807 322.661 92.6801 313.65C93.5437 309.658 94.0367 305.597 94.1532 301.517C94.1938 298.447 93.5473 295.406 92.2592 292.609C91.433 290.844 90.2602 289.256 88.8079 287.938C87.7978 287.049 87.1875 286.698 87.2085 286.635C87.8346 286.945 88.4209 287.327 88.9552 287.772C90.5004 289.053 91.755 290.637 92.638 292.423C94.0193 295.263 94.7382 298.37 94.7425 301.517C94.6955 305.635 94.2516 309.738 93.4167 313.774C91.8804 322.806 90.0495 333.492 88.0293 345.376C86.9981 351.308 85.9248 357.55 84.8095 363.978C84.5359 365.59 84.2412 367.223 83.9466 368.877C83.652 370.53 83.3363 372.142 83.1048 373.796C82.5515 377.138 82.4595 380.537 82.8313 383.903C82.8979 384.314 82.9892 384.722 83.1048 385.123C83.1876 385.52 83.3294 385.903 83.5257 386.259C83.8724 386.989 84.3748 387.638 84.9989 388.161C86.2405 389.36 87.5242 390.496 88.829 391.571C91.4341 393.702 94.1678 395.676 97.0153 397.482C99.8142 399.281 102.634 400.893 105.433 402.381L113.851 406.515L143.082 420.818L143.313 420.942V421.19C142.366 430.139 141.609 437.394 141.083 442.52C140.788 444.959 140.578 446.902 140.409 448.307C140.325 448.913 140.262 449.409 140.22 449.795C140.193 449.951 140.15 450.103 140.093 450.25Z" fill="#FAFAFA"/>
<path d="M134.664 417.097C134.726 418.594 134.606 420.093 134.306 421.562C133.948 424.29 133.359 428.052 132.581 432.185C131.802 436.319 130.918 440.04 130.203 442.706C129.914 444.176 129.425 445.601 128.75 446.943C128.824 445.449 129.057 443.966 129.445 442.52C130.062 439.406 130.764 435.892 131.549 431.979C132.286 426.962 133.326 421.993 134.664 417.097Z" fill="#FAFAFA"/>
<path d="M140.093 450.25C139.743 450.248 139.395 450.192 139.062 450.085L136.179 449.403L125.657 446.674C116.755 444.318 104.381 441.218 91.1229 436.443C84.8838 434.202 78.8087 431.544 72.9404 428.486C68.1462 425.981 63.571 423.091 59.2614 419.846C56.3536 417.66 53.6107 415.27 51.054 412.695C50.1491 411.785 49.4967 411.062 48.9496 410.628C48.699 410.384 48.4863 410.106 48.3182 409.801C48.3182 409.801 49.3705 410.773 51.2645 412.488C53.9326 414.927 56.7433 417.212 59.6823 419.329C64.0342 422.404 68.6056 425.167 73.3613 427.597C79.2149 430.584 85.2605 433.194 91.4596 435.41C104.633 440.164 116.987 443.367 125.825 445.93L136.348 448.969L139.189 449.857C139.506 449.949 139.81 450.081 140.093 450.25Z" fill="#FAFAFA"/>
<path d="M140.809 424.083C140.822 424.453 140.722 424.817 140.522 425.131C140.323 425.444 140.033 425.692 139.689 425.843C139.346 425.994 138.964 426.041 138.593 425.978C138.223 425.915 137.879 425.745 137.607 425.49C137.335 425.234 137.147 424.905 137.066 424.544C136.985 424.183 137.016 423.807 137.154 423.463C137.292 423.119 137.531 422.823 137.841 422.613C138.151 422.404 138.518 422.289 138.894 422.285C139.389 422.279 139.867 422.464 140.225 422.801C140.583 423.137 140.793 423.597 140.809 424.083Z" fill="#FAFAFA"/>
</svg>
